<svg width="12" height="12" viewBox="0 0 12 12" fill="none" xmlns="http://www.w3.org/2000/svg">
<path d="M4.33337 2.66667V9.33334" stroke="black" stroke-width="0.8" stroke-linecap="round" stroke-linejoin="round"/>
<path d="M7.66663 2.66667V9.33334" stroke="black" stroke-width="0.8" stroke-linecap="round" stroke-linejoin="round"/>
<path d="M4.33333 2.66667C4.33333 1.74619 3.58714 1 2.66667 1C1.74619 1 1 1.74619 1 2.66667C1 3.58714 1.74619 4.33333 2.66667 4.33333H9.33333C10.2538 4.33333 11 3.58714 11 2.66667C11 1.74619 10.2538 1 9.33333 1C8.41286 1 7.66667 1.74619 7.66667 2.66667" stroke="black" stroke-width="0.8" stroke-linecap="round" stroke-linejoin="round"/>
<path d="M4.33333 9.33334C4.33333 10.2538 3.58714 11 2.66667 11C1.74619 11 1 10.2538 1 9.33334C1 8.41286 1.74619 7.66667 2.66667 7.66667H9.33333C10.2538 7.66667 11 8.41286 11 9.33334C11 10.2538 10.2538 11 9.33333 11C8.41286 11 7.66667 10.2538 7.66667 9.33334" stroke="black" stroke-width="0.8" stroke-linecap="round" stroke-linejoin="round"/>
</svg>
